# xmcd CD database file
#
# Track frame offsets:
#	150
#	4207
#	38507
#	65709
#	81483
#	111222
#	120119
#	136100
#
# Disc length: 2230 seconds
#
# Revision: 4
# Processed by: cddbd v1.5.2PL0 Copyright (c) Steve Scherf et al.
# Submitted via: CDex 1.70beta2
#
DISCID=5f08b408
DTITLE=Ingebrigt Haker Flaten and Hakon Kornstad - Elise
DYEAR=2008
DGENRE=Jazz
TTITLE0=Ak, Mon Jeg Staar I Naade
TTITLE1=Ak, Mon Jeg Staar I Naade
TTITLE2=Paa Hinside Orken
TTITLE3=Etter Elise
TTITLE4=Death And The Flower
TTITLE5=Dagen Viger Og Gaar Bort
TTITLE6=Skulde Jeg Min Gud Ei Prise
TTITLE7=For Himmerigs Land Maa Man Kjempe
EXTD=YEAR: 2008
EXTT0=
EXTT1=
EXTT2=
EXTT3=
EXTT4=
EXTT5=
EXTT6=
EXTT7=
PLAYORDER=
